<?xml version="1.0" encoding="iso-8859-1"?>
<!-- Generator: Adobe Illustrator 18.1.1, SVG Export Plug-In . SVG Version: 6.00 Build 0)  -->
<svg version="1.1" id="Layer_1" xmlns="http://www.w3.org/2000/svg" xmlns:xlink="http://www.w3.org/1999/xlink" x="0px" y="0px"
	 width="30px" height="30px" viewBox="0 0 30 30" style="enable-background:new 0 0 30 30;" xml:space="preserve">
<style type="text/css">
	.st0{fill:#FFFFFF;stroke:#000000;stroke-miterlimit:10;}
</style>
<path class="st0" d="M0.5,15C0.5,7,7,0.4,15,0.4S29.5,7,29.5,15S23,29.6,15,29.6S0.5,23,0.5,15z M13,9.3L6.9,5.5l2.7,6.7l-7.1,1
	l6.4,3.4L4,21.8l7-1.5l-0.3,7.2l4.4-5.7l4.4,5.7l-0.3-7.2l7,1.5l-4.8-5.3l6.4-3.4l-7.1-1l2.7-6.7l-6.1,3.8l-2.2-6.8L13,9.3z"/>
</svg>
