<?xml version="1.0" encoding="iso-8859-1"?>
<!-- Generator: Adobe Illustrator 18.1.1, SVG Export Plug-In . SVG Version: 6.00 Build 0)  -->
<svg version="1.1" id="Layer_1" xmlns="http://www.w3.org/2000/svg" xmlns:xlink="http://www.w3.org/1999/xlink" x="0px" y="0px"
	 width="30px" height="30px" viewBox="0 0 30 30" style="enable-background:new 0 0 30 30;" xml:space="preserve">
<path d="M15-0.1C6.7-0.1,0,6.7,0,15s6.7,15.1,15,15.1c8.3,0,15-6.8,15-15.1S23.3-0.1,15-0.1z M28.8,12.7l-7.3-1l2.9-7.1
	C26.7,6.7,28.3,9.5,28.8,12.7z M17.7,8.5L15.2,1c3.4,0.1,6.6,1.4,9,3.5L17.7,8.5z M15.1,0.9l-2.4,7.6L5.9,4.3
	c2.4-2.1,5.6-3.3,9.1-3.3C15,0.9,15.1,0.9,15.1,0.9z M5.9,4.3l3,7.4l-7.7,1.1C1.7,9.4,3.4,6.5,5.9,4.3z M1.1,13L8,16.6l-5,5.6
	c-1.3-2.1-2-4.6-2-7.2C1,14.3,1,13.6,1.1,13z M3.2,22.5l7.3-1.6l-0.3,7.3C7.3,27.1,4.8,25.1,3.2,22.5z M10.7,28.4l4.5-5.8l4.4,5.6
	c-1.4,0.5-3,0.8-4.6,0.8C13.5,29.1,12.1,28.8,10.7,28.4z M20.1,28.1l-0.3-7.1l7,1.5C25.3,25,22.9,27,20.1,28.1z M27.2,22l-4.8-5.3
	l6.5-3.5C29,13.8,29,14.4,29,15C29,17.5,28.3,19.9,27.2,22z"/>
</svg>
